<svg width="37" height="37" viewBox="0 0 37 37" fill="none" xmlns="http://www.w3.org/2000/svg">
<path d="M8.15331 0H28.5365C33.0395 0 36.6898 3.65035 36.6898 8.15329V28.5365C36.6898 33.0395 33.0395 36.6898 28.5365 36.6898H8.15331C3.65036 36.6898 2.67029e-05 33.0395 2.67029e-05 28.5365V8.15329C2.67029e-05 3.65035 3.65036 0 8.15331 0Z" fill="black"/>
<path d="M18.3449 26.4982C13.842 26.4982 10.1916 22.8479 10.1916 18.3449C10.1916 13.8419 13.842 10.1916 18.3449 10.1916C22.8479 10.1916 26.4982 13.8419 26.4982 18.3449C26.4982 22.8479 22.8479 26.4982 18.3449 26.4982Z" stroke="white" stroke-width="3" stroke-linejoin="round"/>
<path d="M7.13416 9.17244C6.0084 9.17244 5.09584 8.25988 5.09584 7.13412C5.09584 6.00835 6.0084 5.09579 7.13416 5.09579C8.25993 5.09579 9.17249 6.00835 9.17249 7.13412C9.17249 8.25988 8.25993 9.17244 7.13416 9.17244Z" fill="white"/>
</svg>
