<svg width="287" height="54" viewBox="0 0 287 54" fill="none" xmlns="http://www.w3.org/2000/svg">
<path d="M8.388 35.248H16.452V40H2.232V14.728H8.388V35.248ZM22.4843 17.824C21.4043 17.824 20.5163 17.512 19.8203 16.888C19.1483 16.24 18.8123 15.448 18.8123 14.512C18.8123 13.552 19.1483 12.76 19.8203 12.136C20.5163 11.488 21.4043 11.164 22.4843 11.164C23.5403 11.164 24.4043 11.488 25.0763 12.136C25.7723 12.76 26.1203 13.552 26.1203 14.512C26.1203 15.448 25.7723 16.24 25.0763 16.888C24.4043 17.512 23.5403 17.824 22.4843 17.824ZM25.5443 19.912V40H19.3883V19.912H25.5443ZM41.2014 34.78V40H38.0694C35.8374 40 34.0974 39.46 32.8494 38.38C31.6014 37.276 30.9774 35.488 30.9774 33.016V25.024H28.5294V19.912H30.9774V15.016H37.1334V19.912H41.1654V25.024H37.1334V33.088C37.1334 33.688 37.2774 34.12 37.5654 34.384C37.8534 34.648 38.3334 34.78 39.0054 34.78H41.2014ZM63.5664 29.632C63.5664 30.208 63.5304 30.808 63.4584 31.432H49.5264C49.6224 32.68 50.0184 33.64 50.7144 34.312C51.4344 34.96 52.3104 35.284 53.3424 35.284C54.8784 35.284 55.9464 34.636 56.5464 33.34H63.0984C62.7624 34.66 62.1504 35.848 61.2624 36.904C60.3984 37.96 59.3064 38.788 57.9864 39.388C56.6664 39.988 55.1904 40.288 53.5584 40.288C51.5904 40.288 49.8384 39.868 48.3024 39.028C46.7664 38.188 45.5664 36.988 44.7024 35.428C43.8384 33.868 43.4064 32.044 43.4064 29.956C43.4064 27.868 43.8264 26.044 44.6664 24.484C45.5304 22.924 46.7304 21.724 48.2664 20.884C49.8024 20.044 51.5664 19.624 53.5584 19.624C55.5024 19.624 57.2304 20.032 58.7424 20.848C60.2544 21.664 61.4304 22.828 62.2704 24.34C63.1344 25.852 63.5664 27.616 63.5664 29.632ZM57.2664 28.012C57.2664 26.956 56.9064 26.116 56.1864 25.492C55.4664 24.868 54.5664 24.556 53.4864 24.556C52.4544 24.556 51.5784 24.856 50.8584 25.456C50.1624 26.056 49.7304 26.908 49.5624 28.012H57.2664ZM72.97 23.26C73.69 22.156 74.59 21.292 75.67 20.668C76.75 20.02 77.95 19.696 79.27 19.696V26.212H77.578C76.042 26.212 74.89 26.548 74.122 27.22C73.354 27.868 72.97 29.02 72.97 30.676V40H66.814V19.912H72.97V23.26ZM80.9885 29.92C80.9885 27.856 81.3725 26.044 82.1405 24.484C82.9325 22.924 84.0005 21.724 85.3445 20.884C86.6885 20.044 88.1885 19.624 89.8445 19.624C91.2605 19.624 92.4965 19.912 93.5525 20.488C94.6325 21.064 95.4605 21.82 96.0365 22.756V19.912H102.192V40H96.0365V37.156C95.4365 38.092 94.5965 38.848 93.5165 39.424C92.4605 40 91.2245 40.288 89.8085 40.288C88.1765 40.288 86.6885 39.868 85.3445 39.028C84.0005 38.164 82.9325 36.952 82.1405 35.392C81.3725 33.808 80.9885 31.984 80.9885 29.92ZM96.0365 29.956C96.0365 28.42 95.6045 27.208 94.7405 26.32C93.9005 25.432 92.8685 24.988 91.6445 24.988C90.4205 24.988 89.3765 25.432 88.5125 26.32C87.6725 27.184 87.2525 28.384 87.2525 29.92C87.2525 31.456 87.6725 32.68 88.5125 33.592C89.3765 34.48 90.4205 34.924 91.6445 34.924C92.8685 34.924 93.9005 34.48 94.7405 33.592C95.6045 32.704 96.0365 31.492 96.0365 29.956ZM114.818 40.288C113.066 40.288 111.506 39.988 110.138 39.388C108.77 38.788 107.69 37.972 106.898 36.94C106.106 35.884 105.662 34.708 105.566 33.412H111.65C111.722 34.108 112.046 34.672 112.622 35.104C113.198 35.536 113.906 35.752 114.746 35.752C115.514 35.752 116.102 35.608 116.51 35.32C116.942 35.008 117.158 34.612 117.158 34.132C117.158 33.556 116.858 33.136 116.258 32.872C115.658 32.584 114.686 32.272 113.342 31.936C111.902 31.6 110.702 31.252 109.742 30.892C108.782 30.508 107.954 29.92 107.258 29.128C106.562 28.312 106.214 27.22 106.214 25.852C106.214 24.7 106.526 23.656 107.15 22.72C107.798 21.76 108.734 21.004 109.958 20.452C111.206 19.9 112.682 19.624 114.386 19.624C116.906 19.624 118.886 20.248 120.326 21.496C121.79 22.744 122.63 24.4 122.846 26.464H117.158C117.062 25.768 116.75 25.216 116.222 24.808C115.718 24.4 115.046 24.196 114.206 24.196C113.486 24.196 112.934 24.34 112.55 24.628C112.166 24.892 111.974 25.264 111.974 25.744C111.974 26.32 112.274 26.752 112.874 27.04C113.498 27.328 114.458 27.616 115.754 27.904C117.242 28.288 118.454 28.672 119.39 29.056C120.326 29.416 121.142 30.016 121.838 30.856C122.558 31.672 122.93 32.776 122.954 34.168C122.954 35.344 122.618 36.4 121.946 37.336C121.298 38.248 120.35 38.968 119.102 39.496C117.878 40.024 116.45 40.288 114.818 40.288ZM129.816 17.824C128.736 17.824 127.848 17.512 127.152 16.888C126.48 16.24 126.144 15.448 126.144 14.512C126.144 13.552 126.48 12.76 127.152 12.136C127.848 11.488 128.736 11.164 129.816 11.164C130.872 11.164 131.736 11.488 132.408 12.136C133.104 12.76 133.452 13.552 133.452 14.512C133.452 15.448 133.104 16.24 132.408 16.888C131.736 17.512 130.872 17.824 129.816 17.824ZM132.876 19.912V40H126.72V19.912H132.876ZM152.637 27.04C154.101 27.352 155.277 28.084 156.165 29.236C157.053 30.364 157.497 31.66 157.497 33.124C157.497 35.236 156.753 36.916 155.265 38.164C153.801 39.388 151.749 40 149.109 40H137.337V14.728H148.713C151.281 14.728 153.285 15.316 154.725 16.492C156.189 17.668 156.921 19.264 156.921 21.28C156.921 22.768 156.525 24.004 155.733 24.988C154.965 25.972 153.933 26.656 152.637 27.04ZM143.493 24.952H147.525C148.533 24.952 149.301 24.736 149.829 24.304C150.381 23.848 150.657 23.188 150.657 22.324C150.657 21.46 150.381 20.8 149.829 20.344C149.301 19.888 148.533 19.66 147.525 19.66H143.493V24.952ZM148.029 35.032C149.061 35.032 149.853 34.804 150.405 34.348C150.981 33.868 151.269 33.184 151.269 32.296C151.269 31.408 150.969 30.712 150.369 30.208C149.793 29.704 148.989 29.452 147.957 29.452H143.493V35.032H148.029ZM159.844 29.92C159.844 27.856 160.228 26.044 160.996 24.484C161.788 22.924 162.856 21.724 164.2 20.884C165.544 20.044 167.044 19.624 168.7 19.624C170.116 19.624 171.352 19.912 172.408 20.488C173.488 21.064 174.316 21.82 174.892 22.756V19.912H181.048V40H174.892V37.156C174.292 38.092 173.452 38.848 172.372 39.424C171.316 40 170.08 40.288 168.664 40.288C167.032 40.288 165.544 39.868 164.2 39.028C162.856 38.164 161.788 36.952 160.996 35.392C160.228 33.808 159.844 31.984 159.844 29.92ZM174.892 29.956C174.892 28.42 174.46 27.208 173.596 26.32C172.756 25.432 171.724 24.988 170.5 24.988C169.276 24.988 168.232 25.432 167.368 26.32C166.528 27.184 166.108 28.384 166.108 29.92C166.108 31.456 166.528 32.68 167.368 33.592C168.232 34.48 169.276 34.924 170.5 34.924C171.724 34.924 172.756 34.48 173.596 33.592C174.46 32.704 174.892 31.492 174.892 29.956ZM197.742 19.696C200.094 19.696 201.966 20.464 203.358 22C204.774 23.512 205.482 25.6 205.482 28.264V40H199.362V29.092C199.362 27.748 199.014 26.704 198.318 25.96C197.622 25.216 196.686 24.844 195.51 24.844C194.334 24.844 193.398 25.216 192.702 25.96C192.006 26.704 191.658 27.748 191.658 29.092V40H185.502V19.912H191.658V22.576C192.282 21.688 193.122 20.992 194.178 20.488C195.234 19.96 196.422 19.696 197.742 19.696ZM217.391 19.624C218.807 19.624 220.043 19.912 221.099 20.488C222.179 21.064 223.007 21.82 223.583 22.756V19.912H229.739V39.964C229.739 41.812 229.367 43.48 228.623 44.968C227.903 46.48 226.787 47.68 225.275 48.568C223.787 49.456 221.927 49.9 219.695 49.9C216.719 49.9 214.307 49.192 212.459 47.776C210.611 46.384 209.555 44.488 209.291 42.088H215.375C215.567 42.856 216.023 43.456 216.743 43.888C217.463 44.344 218.351 44.572 219.407 44.572C220.679 44.572 221.687 44.2 222.431 43.456C223.199 42.736 223.583 41.572 223.583 39.964V37.12C222.983 38.056 222.155 38.824 221.099 39.424C220.043 40 218.807 40.288 217.391 40.288C215.735 40.288 214.235 39.868 212.891 39.028C211.547 38.164 210.479 36.952 209.687 35.392C208.919 33.808 208.535 31.984 208.535 29.92C208.535 27.856 208.919 26.044 209.687 24.484C210.479 22.924 211.547 21.724 212.891 20.884C214.235 20.044 215.735 19.624 217.391 19.624ZM223.583 29.956C223.583 28.42 223.151 27.208 222.287 26.32C221.447 25.432 220.415 24.988 219.191 24.988C217.967 24.988 216.923 25.432 216.059 26.32C215.219 27.184 214.799 28.384 214.799 29.92C214.799 31.456 215.219 32.68 216.059 33.592C216.923 34.48 217.967 34.924 219.191 34.924C220.415 34.924 221.447 34.48 222.287 33.592C223.151 32.704 223.583 31.492 223.583 29.956ZM242.365 40.288C240.613 40.288 239.053 39.988 237.685 39.388C236.317 38.788 235.237 37.972 234.445 36.94C233.653 35.884 233.209 34.708 233.113 33.412H239.197C239.269 34.108 239.593 34.672 240.169 35.104C240.745 35.536 241.453 35.752 242.293 35.752C243.061 35.752 243.649 35.608 244.057 35.32C244.489 35.008 244.705 34.612 244.705 34.132C244.705 33.556 244.405 33.136 243.805 32.872C243.205 32.584 242.233 32.272 240.889 31.936C239.449 31.6 238.249 31.252 237.289 30.892C236.329 30.508 235.501 29.92 234.805 29.128C234.109 28.312 233.761 27.22 233.761 25.852C233.761 24.7 234.073 23.656 234.697 22.72C235.345 21.76 236.281 21.004 237.505 20.452C238.753 19.9 240.229 19.624 241.933 19.624C244.453 19.624 246.433 20.248 247.873 21.496C249.337 22.744 250.177 24.4 250.393 26.464H244.705C244.609 25.768 244.297 25.216 243.769 24.808C243.265 24.4 242.593 24.196 241.753 24.196C241.033 24.196 240.481 24.34 240.097 24.628C239.713 24.892 239.521 25.264 239.521 25.744C239.521 26.32 239.821 26.752 240.421 27.04C241.045 27.328 242.005 27.616 243.301 27.904C244.789 28.288 246.001 28.672 246.937 29.056C247.873 29.416 248.689 30.016 249.385 30.856C250.105 31.672 250.477 32.776 250.501 34.168C250.501 35.344 250.165 36.4 249.493 37.336C248.845 38.248 247.897 38.968 246.649 39.496C245.425 40.024 243.997 40.288 242.365 40.288ZM253.043 29.92C253.043 27.856 253.427 26.044 254.195 24.484C254.987 22.924 256.055 21.724 257.399 20.884C258.743 20.044 260.243 19.624 261.899 19.624C263.315 19.624 264.551 19.912 265.607 20.488C266.687 21.064 267.515 21.82 268.091 22.756V19.912H274.247V40H268.091V37.156C267.491 38.092 266.651 38.848 265.571 39.424C264.515 40 263.279 40.288 261.863 40.288C260.231 40.288 258.743 39.868 257.399 39.028C256.055 38.164 254.987 36.952 254.195 35.392C253.427 33.808 253.043 31.984 253.043 29.92ZM268.091 29.956C268.091 28.42 267.659 27.208 266.795 26.32C265.955 25.432 264.923 24.988 263.699 24.988C262.475 24.988 261.431 25.432 260.567 26.32C259.727 27.184 259.307 28.384 259.307 29.92C259.307 31.456 259.727 32.68 260.567 33.592C261.431 34.48 262.475 34.924 263.699 34.924C264.923 34.924 265.955 34.48 266.795 33.592C267.659 32.704 268.091 31.492 268.091 29.956ZM281.581 40.288C280.501 40.288 279.613 39.976 278.917 39.352C278.245 38.704 277.909 37.912 277.909 36.976C277.909 36.016 278.245 35.212 278.917 34.564C279.613 33.916 280.501 33.592 281.581 33.592C282.637 33.592 283.501 33.916 284.173 34.564C284.869 35.212 285.217 36.016 285.217 36.976C285.217 37.912 284.869 38.704 284.173 39.352C283.501 39.976 282.637 40.288 281.581 40.288Z" fill="black"/>
</svg>
