<svg width="37" height="37" viewBox="0 0 37 37" fill="none" xmlns="http://www.w3.org/2000/svg">
<rect width="37" height="37" rx="8" fill="black"/>
<path d="M5.17993 26.3816C6.50365 27.1134 16.0857 32.637 22.8993 28.3799C29.7128 24.1227 29.337 16.7883 29.337 13.4275C29.9542 12.1344 31.2581 11.477 31.2581 7.977C29.9773 9.16013 28.7043 9.56269 27.439 9.18469C26.1994 7.29469 24.4939 6.45875 22.3225 6.67689C19.0654 7.00411 17.8738 10.1996 18.2244 14.3338C13.2023 16.8735 9.26425 12.4928 7.23474 9.18469C6.55663 11.79 5.90278 14.9178 7.23474 18.3779C8.12272 20.6845 10.2573 22.6347 13.6385 24.2284C10.2118 26.0855 7.39233 26.8032 5.17993 26.3816Z" fill="white"/>
</svg>
